<mxfile host="Electron" agent="Mozilla/5.0 (Windows NT 10.0; Win64; x64) AppleWebKit/537.36 (KHTML, like Gecko) draw.io/26.0.4 Chrome/128.0.6613.186 Electron/32.2.5 Safari/537.36" version="26.0.4">
  <diagram name="Page-1" id="_vgkqlBD_utQPzo5ugUV">
    <mxGraphModel dx="756" dy="789" grid="1" gridSize="10" guides="1" tooltips="1" connect="1" arrows="1" fold="1" page="1" pageScale="1" pageWidth="1169" pageHeight="827" math="0" shadow="0">
      <root>
        <mxCell id="0" />
        <mxCell id="1" parent="0" />
        <mxCell id="8K69_OrqwdYoqTzNkHoj-1" value="&lt;b&gt;&lt;font style=&quot;font-size: 16px;&quot;&gt;sales offices&lt;/font&gt;&lt;/b&gt;" style="whiteSpace=wrap;html=1;align=center;" vertex="1" parent="1">
          <mxGeometry x="594" y="160" width="116" height="50" as="geometry" />
        </mxCell>
        <mxCell id="8K69_OrqwdYoqTzNkHoj-2" value="Office_Numbe" style="ellipse;whiteSpace=wrap;html=1;align=center;" vertex="1" parent="1">
          <mxGeometry x="510" y="60" width="100" height="40" as="geometry" />
        </mxCell>
        <mxCell id="8K69_OrqwdYoqTzNkHoj-3" value="" style="endArrow=none;html=1;rounded=0;" edge="1" parent="1" source="8K69_OrqwdYoqTzNkHoj-2" target="8K69_OrqwdYoqTzNkHoj-1">
          <mxGeometry relative="1" as="geometry">
            <mxPoint x="470" y="310" as="sourcePoint" />
            <mxPoint x="630" y="310" as="targetPoint" />
          </mxGeometry>
        </mxCell>
        <mxCell id="8K69_OrqwdYoqTzNkHoj-4" value="Location" style="ellipse;whiteSpace=wrap;html=1;align=center;" vertex="1" parent="1">
          <mxGeometry x="660" y="60" width="100" height="40" as="geometry" />
        </mxCell>
        <mxCell id="8K69_OrqwdYoqTzNkHoj-6" value="" style="endArrow=none;html=1;rounded=0;" edge="1" parent="1" source="8K69_OrqwdYoqTzNkHoj-4" target="8K69_OrqwdYoqTzNkHoj-1">
          <mxGeometry relative="1" as="geometry">
            <mxPoint x="740" y="230" as="sourcePoint" />
            <mxPoint x="900" y="230" as="targetPoint" />
          </mxGeometry>
        </mxCell>
        <mxCell id="8K69_OrqwdYoqTzNkHoj-7" value="&lt;b&gt;&lt;font style=&quot;font-size: 16px;&quot;&gt;employees&lt;/font&gt;&lt;/b&gt;" style="whiteSpace=wrap;html=1;align=center;" vertex="1" parent="1">
          <mxGeometry x="594" y="530" width="116" height="50" as="geometry" />
        </mxCell>
        <mxCell id="8K69_OrqwdYoqTzNkHoj-8" value="Employee_ID" style="ellipse;whiteSpace=wrap;html=1;align=center;fontStyle=4;" vertex="1" parent="1">
          <mxGeometry x="520" y="650" width="100" height="40" as="geometry" />
        </mxCell>
        <mxCell id="8K69_OrqwdYoqTzNkHoj-9" value="" style="endArrow=none;html=1;rounded=0;" edge="1" parent="1" source="8K69_OrqwdYoqTzNkHoj-8" target="8K69_OrqwdYoqTzNkHoj-7">
          <mxGeometry relative="1" as="geometry">
            <mxPoint x="440" y="610" as="sourcePoint" />
            <mxPoint x="600" y="610" as="targetPoint" />
          </mxGeometry>
        </mxCell>
        <mxCell id="8K69_OrqwdYoqTzNkHoj-10" value="Employee_Name" style="ellipse;whiteSpace=wrap;html=1;align=center;" vertex="1" parent="1">
          <mxGeometry x="660" y="650" width="100" height="40" as="geometry" />
        </mxCell>
        <mxCell id="8K69_OrqwdYoqTzNkHoj-11" value="" style="endArrow=none;html=1;rounded=0;" edge="1" parent="1" source="8K69_OrqwdYoqTzNkHoj-7" target="8K69_OrqwdYoqTzNkHoj-10">
          <mxGeometry relative="1" as="geometry">
            <mxPoint x="770" y="610" as="sourcePoint" />
            <mxPoint x="930" y="610" as="targetPoint" />
          </mxGeometry>
        </mxCell>
        <mxCell id="8K69_OrqwdYoqTzNkHoj-12" value="&lt;b&gt;&lt;font style=&quot;font-size: 16px;&quot;&gt;property&lt;/font&gt;&lt;/b&gt;" style="whiteSpace=wrap;html=1;align=center;" vertex="1" parent="1">
          <mxGeometry x="360" y="340" width="100" height="40" as="geometry" />
        </mxCell>
        <mxCell id="8K69_OrqwdYoqTzNkHoj-13" value="Property_ID " style="ellipse;whiteSpace=wrap;html=1;align=center;fontStyle=4;" vertex="1" parent="1">
          <mxGeometry x="220" y="300" width="100" height="40" as="geometry" />
        </mxCell>
        <mxCell id="8K69_OrqwdYoqTzNkHoj-14" value="" style="endArrow=none;html=1;rounded=0;" edge="1" parent="1" source="8K69_OrqwdYoqTzNkHoj-13" target="8K69_OrqwdYoqTzNkHoj-12">
          <mxGeometry relative="1" as="geometry">
            <mxPoint x="320" y="370" as="sourcePoint" />
            <mxPoint x="480" y="370" as="targetPoint" />
          </mxGeometry>
        </mxCell>
        <mxCell id="8K69_OrqwdYoqTzNkHoj-15" value="Location" style="ellipse;whiteSpace=wrap;html=1;align=center;" vertex="1" parent="1">
          <mxGeometry x="220" y="360" width="100" height="40" as="geometry" />
        </mxCell>
        <mxCell id="8K69_OrqwdYoqTzNkHoj-16" value="" style="endArrow=none;html=1;rounded=0;" edge="1" parent="1" source="8K69_OrqwdYoqTzNkHoj-15" target="8K69_OrqwdYoqTzNkHoj-12">
          <mxGeometry relative="1" as="geometry">
            <mxPoint x="280" y="470" as="sourcePoint" />
            <mxPoint x="440" y="470" as="targetPoint" />
          </mxGeometry>
        </mxCell>
        <mxCell id="8K69_OrqwdYoqTzNkHoj-18" value="City" style="ellipse;whiteSpace=wrap;html=1;align=center;" vertex="1" parent="1">
          <mxGeometry x="80" y="330" width="100" height="40" as="geometry" />
        </mxCell>
        <mxCell id="8K69_OrqwdYoqTzNkHoj-19" value="State" style="ellipse;whiteSpace=wrap;html=1;align=center;" vertex="1" parent="1">
          <mxGeometry x="80" y="400" width="100" height="40" as="geometry" />
        </mxCell>
        <mxCell id="8K69_OrqwdYoqTzNkHoj-20" value="" style="endArrow=none;html=1;rounded=0;" edge="1" parent="1" source="8K69_OrqwdYoqTzNkHoj-18" target="8K69_OrqwdYoqTzNkHoj-15">
          <mxGeometry relative="1" as="geometry">
            <mxPoint x="110" y="530" as="sourcePoint" />
            <mxPoint x="270" y="530" as="targetPoint" />
          </mxGeometry>
        </mxCell>
        <mxCell id="8K69_OrqwdYoqTzNkHoj-21" value="" style="endArrow=none;html=1;rounded=0;" edge="1" parent="1" source="8K69_OrqwdYoqTzNkHoj-19" target="8K69_OrqwdYoqTzNkHoj-15">
          <mxGeometry relative="1" as="geometry">
            <mxPoint x="40" y="600" as="sourcePoint" />
            <mxPoint x="200" y="600" as="targetPoint" />
          </mxGeometry>
        </mxCell>
        <mxCell id="8K69_OrqwdYoqTzNkHoj-22" value="Address" style="ellipse;whiteSpace=wrap;html=1;align=center;" vertex="1" parent="1">
          <mxGeometry x="80" y="260" width="100" height="40" as="geometry" />
        </mxCell>
        <mxCell id="8K69_OrqwdYoqTzNkHoj-23" value="Zip_Code" style="ellipse;whiteSpace=wrap;html=1;align=center;" vertex="1" parent="1">
          <mxGeometry x="90" y="460" width="100" height="40" as="geometry" />
        </mxCell>
        <mxCell id="8K69_OrqwdYoqTzNkHoj-24" value="" style="endArrow=none;html=1;rounded=0;" edge="1" parent="1" source="8K69_OrqwdYoqTzNkHoj-22" target="8K69_OrqwdYoqTzNkHoj-15">
          <mxGeometry relative="1" as="geometry">
            <mxPoint x="230" y="480" as="sourcePoint" />
            <mxPoint x="390" y="480" as="targetPoint" />
          </mxGeometry>
        </mxCell>
        <mxCell id="8K69_OrqwdYoqTzNkHoj-25" value="" style="endArrow=none;html=1;rounded=0;" edge="1" parent="1" source="8K69_OrqwdYoqTzNkHoj-23" target="8K69_OrqwdYoqTzNkHoj-15">
          <mxGeometry relative="1" as="geometry">
            <mxPoint x="190" y="560" as="sourcePoint" />
            <mxPoint x="350" y="560" as="targetPoint" />
          </mxGeometry>
        </mxCell>
        <mxCell id="8K69_OrqwdYoqTzNkHoj-26" value="&lt;b&gt;&lt;font style=&quot;font-size: 16px;&quot;&gt;owners&lt;/font&gt;&lt;/b&gt;" style="whiteSpace=wrap;html=1;align=center;" vertex="1" parent="1">
          <mxGeometry x="250" y="570" width="100" height="40" as="geometry" />
        </mxCell>
        <mxCell id="8K69_OrqwdYoqTzNkHoj-27" value="Owner_Name" style="ellipse;whiteSpace=wrap;html=1;align=center;" vertex="1" parent="1">
          <mxGeometry x="390" y="590" width="100" height="40" as="geometry" />
        </mxCell>
        <mxCell id="8K69_OrqwdYoqTzNkHoj-28" value="Owner_ID" style="ellipse;whiteSpace=wrap;html=1;align=center;fontStyle=4;" vertex="1" parent="1">
          <mxGeometry x="400" y="520" width="100" height="40" as="geometry" />
        </mxCell>
        <mxCell id="8K69_OrqwdYoqTzNkHoj-29" value="" style="endArrow=none;html=1;rounded=0;" edge="1" parent="1" source="8K69_OrqwdYoqTzNkHoj-26" target="8K69_OrqwdYoqTzNkHoj-27">
          <mxGeometry relative="1" as="geometry">
            <mxPoint x="360" y="600" as="sourcePoint" />
            <mxPoint x="520" y="600" as="targetPoint" />
          </mxGeometry>
        </mxCell>
        <mxCell id="8K69_OrqwdYoqTzNkHoj-30" value="" style="endArrow=none;html=1;rounded=0;" edge="1" parent="1" source="8K69_OrqwdYoqTzNkHoj-28" target="8K69_OrqwdYoqTzNkHoj-26">
          <mxGeometry relative="1" as="geometry">
            <mxPoint x="230" y="530" as="sourcePoint" />
            <mxPoint x="390" y="530" as="targetPoint" />
          </mxGeometry>
        </mxCell>
        <mxCell id="8K69_OrqwdYoqTzNkHoj-31" value="assigned" style="shape=rhombus;perimeter=rhombusPerimeter;whiteSpace=wrap;html=1;align=center;" vertex="1" parent="1">
          <mxGeometry x="530" y="320" width="120" height="60" as="geometry" />
        </mxCell>
        <mxCell id="8K69_OrqwdYoqTzNkHoj-34" value="" style="endArrow=none;html=1;rounded=0;" edge="1" parent="1" source="8K69_OrqwdYoqTzNkHoj-31" target="8K69_OrqwdYoqTzNkHoj-7">
          <mxGeometry relative="1" as="geometry">
            <mxPoint x="660" y="460" as="sourcePoint" />
            <mxPoint x="820" y="460" as="targetPoint" />
          </mxGeometry>
        </mxCell>
        <mxCell id="8K69_OrqwdYoqTzNkHoj-35" value="N" style="resizable=0;html=1;whiteSpace=wrap;align=right;verticalAlign=bottom;" connectable="0" vertex="1" parent="8K69_OrqwdYoqTzNkHoj-34">
          <mxGeometry x="1" relative="1" as="geometry" />
        </mxCell>
        <mxCell id="8K69_OrqwdYoqTzNkHoj-36" value="" style="shape=link;html=1;rounded=0;" edge="1" parent="1" source="8K69_OrqwdYoqTzNkHoj-31" target="8K69_OrqwdYoqTzNkHoj-1">
          <mxGeometry relative="1" as="geometry">
            <mxPoint x="580" y="280" as="sourcePoint" />
            <mxPoint x="740" y="280" as="targetPoint" />
          </mxGeometry>
        </mxCell>
        <mxCell id="8K69_OrqwdYoqTzNkHoj-37" value="1" style="resizable=0;html=1;whiteSpace=wrap;align=right;verticalAlign=bottom;" connectable="0" vertex="1" parent="8K69_OrqwdYoqTzNkHoj-36">
          <mxGeometry x="1" relative="1" as="geometry" />
        </mxCell>
        <mxCell id="8K69_OrqwdYoqTzNkHoj-38" value="" style="shape=link;html=1;rounded=0;" edge="1" parent="1" source="8K69_OrqwdYoqTzNkHoj-40" target="8K69_OrqwdYoqTzNkHoj-7">
          <mxGeometry relative="1" as="geometry">
            <mxPoint x="710" y="410" as="sourcePoint" />
            <mxPoint x="860" y="420" as="targetPoint" />
          </mxGeometry>
        </mxCell>
        <mxCell id="8K69_OrqwdYoqTzNkHoj-39" value="1" style="resizable=0;html=1;whiteSpace=wrap;align=right;verticalAlign=bottom;" connectable="0" vertex="1" parent="8K69_OrqwdYoqTzNkHoj-38">
          <mxGeometry x="1" relative="1" as="geometry" />
        </mxCell>
        <mxCell id="8K69_OrqwdYoqTzNkHoj-40" value="manage" style="shape=rhombus;perimeter=rhombusPerimeter;whiteSpace=wrap;html=1;align=center;" vertex="1" parent="1">
          <mxGeometry x="686" y="320" width="120" height="60" as="geometry" />
        </mxCell>
        <mxCell id="8K69_OrqwdYoqTzNkHoj-41" value="" style="endArrow=none;html=1;rounded=0;" edge="1" parent="1" source="8K69_OrqwdYoqTzNkHoj-40" target="8K69_OrqwdYoqTzNkHoj-1">
          <mxGeometry relative="1" as="geometry">
            <mxPoint x="680" y="260" as="sourcePoint" />
            <mxPoint x="840" y="260" as="targetPoint" />
          </mxGeometry>
        </mxCell>
        <mxCell id="8K69_OrqwdYoqTzNkHoj-42" value="1" style="resizable=0;html=1;whiteSpace=wrap;align=right;verticalAlign=bottom;" connectable="0" vertex="1" parent="8K69_OrqwdYoqTzNkHoj-41">
          <mxGeometry x="1" relative="1" as="geometry" />
        </mxCell>
        <mxCell id="8K69_OrqwdYoqTzNkHoj-45" value="" style="endArrow=none;html=1;rounded=0;" edge="1" parent="1" source="8K69_OrqwdYoqTzNkHoj-47" target="8K69_OrqwdYoqTzNkHoj-12">
          <mxGeometry relative="1" as="geometry">
            <mxPoint x="470" y="290" as="sourcePoint" />
            <mxPoint x="610" y="270" as="targetPoint" />
          </mxGeometry>
        </mxCell>
        <mxCell id="8K69_OrqwdYoqTzNkHoj-46" value="N" style="resizable=0;html=1;whiteSpace=wrap;align=right;verticalAlign=bottom;" connectable="0" vertex="1" parent="8K69_OrqwdYoqTzNkHoj-45">
          <mxGeometry x="1" relative="1" as="geometry" />
        </mxCell>
        <mxCell id="8K69_OrqwdYoqTzNkHoj-47" value="Relationship" style="shape=rhombus;perimeter=rhombusPerimeter;whiteSpace=wrap;html=1;align=center;" vertex="1" parent="1">
          <mxGeometry x="430" y="210" width="120" height="60" as="geometry" />
        </mxCell>
        <mxCell id="8K69_OrqwdYoqTzNkHoj-50" value="" style="shape=link;html=1;rounded=0;" edge="1" parent="1" source="8K69_OrqwdYoqTzNkHoj-47" target="8K69_OrqwdYoqTzNkHoj-1">
          <mxGeometry relative="1" as="geometry">
            <mxPoint x="380" y="170" as="sourcePoint" />
            <mxPoint x="540" y="170" as="targetPoint" />
          </mxGeometry>
        </mxCell>
        <mxCell id="8K69_OrqwdYoqTzNkHoj-51" value="1" style="resizable=0;html=1;whiteSpace=wrap;align=right;verticalAlign=bottom;" connectable="0" vertex="1" parent="8K69_OrqwdYoqTzNkHoj-50">
          <mxGeometry x="1" relative="1" as="geometry" />
        </mxCell>
        <mxCell id="8K69_OrqwdYoqTzNkHoj-52" value="" style="shape=link;html=1;rounded=0;" edge="1" parent="1" source="8K69_OrqwdYoqTzNkHoj-58" target="8K69_OrqwdYoqTzNkHoj-26">
          <mxGeometry relative="1" as="geometry">
            <mxPoint x="390" y="450" as="sourcePoint" />
            <mxPoint x="550" y="450" as="targetPoint" />
          </mxGeometry>
        </mxCell>
        <mxCell id="8K69_OrqwdYoqTzNkHoj-54" value="N" style="resizable=0;html=1;whiteSpace=wrap;align=right;verticalAlign=bottom;" connectable="0" vertex="1" parent="8K69_OrqwdYoqTzNkHoj-52">
          <mxGeometry x="1" relative="1" as="geometry" />
        </mxCell>
        <mxCell id="8K69_OrqwdYoqTzNkHoj-55" value="" style="shape=link;html=1;rounded=0;" edge="1" parent="1" source="8K69_OrqwdYoqTzNkHoj-12" target="8K69_OrqwdYoqTzNkHoj-58">
          <mxGeometry relative="1" as="geometry">
            <mxPoint x="400" y="380" as="sourcePoint" />
            <mxPoint x="310" y="570" as="targetPoint" />
          </mxGeometry>
        </mxCell>
        <mxCell id="8K69_OrqwdYoqTzNkHoj-56" value="M" style="resizable=0;html=1;whiteSpace=wrap;align=left;verticalAlign=bottom;" connectable="0" vertex="1" parent="8K69_OrqwdYoqTzNkHoj-55">
          <mxGeometry x="-1" relative="1" as="geometry" />
        </mxCell>
        <mxCell id="8K69_OrqwdYoqTzNkHoj-58" value="owned by " style="shape=rhombus;perimeter=rhombusPerimeter;whiteSpace=wrap;html=1;align=center;" vertex="1" parent="1">
          <mxGeometry x="300" y="440" width="120" height="60" as="geometry" />
        </mxCell>
      </root>
    </mxGraphModel>
  </diagram>
</mxfile>
